<svg width="251" height="52" viewBox="0 0 251 52" fill="none" xmlns="http://www.w3.org/2000/svg">
<mask id="path-1-inside-1_800_473" fill="white">
<path d="M77.0359 33.5828V11.585H86.7851C88.7464 11.585 90.2363 11.7849 91.2553 12.1789C92.2745 12.5734 93.0885 13.2697 93.6977 14.2683C94.3073 15.2666 94.6093 16.3726 94.6093 17.5814C94.6093 19.1432 94.1023 20.4588 93.0935 21.529C92.0847 22.5995 90.5284 23.2751 88.4187 23.5672C89.192 23.9359 89.7755 24.3045 90.175 24.6627C91.0248 25.4411 91.8289 26.419 92.5815 27.5917L96.3862 33.5828H92.7506L89.8422 29.0052C88.9971 27.6789 88.2957 26.6701 87.7477 25.9687C87.1947 25.2669 86.7034 24.7807 86.268 24.499C85.838 24.2226 85.3924 24.0281 84.9417 23.9152C84.6141 23.8488 84.0766 23.8128 83.3237 23.8128H79.9545V33.5828H77.0359ZM79.9545 21.2935H86.2016C87.533 21.2935 88.5671 21.1552 89.3146 20.8788C90.0625 20.6073 90.6308 20.1671 91.0146 19.5579C91.404 18.9534 91.5985 18.298 91.5985 17.5864C91.5985 16.5468 91.2248 15.6865 90.4718 15.0158C89.7192 14.3449 88.5312 14.0121 86.9081 14.0121H79.9545V21.2935ZM98.6088 33.5828V11.585H114.493V14.1657H101.527V20.9248H113.663V23.5055H101.527V31.002H115.015V33.5828H98.6088ZM118.302 33.5828V11.585H121.221V31.002H132.035V33.5828H118.302ZM135.389 33.5828V11.585H138.308V33.5828H135.389ZM148.718 33.5828V14.1657H141.467V11.585H158.887V14.1657H151.636V33.5828H148.718ZM161.032 33.5828V11.585H170.782C172.743 11.585 174.233 11.7849 175.252 12.1789C176.271 12.5734 177.085 13.2697 177.694 14.2683C178.304 15.2666 178.606 16.3726 178.606 17.5814C178.606 19.1432 178.099 20.4588 177.09 21.529C176.081 22.5995 174.525 23.2751 172.415 23.5672C173.188 23.9359 173.772 24.3045 174.171 24.6627C175.021 25.4411 175.825 26.419 176.578 27.5917L180.383 33.5828H176.747L173.839 29.0052C172.994 27.6789 172.292 26.6701 171.744 25.9687C171.191 25.2669 170.7 24.7807 170.264 24.499C169.834 24.2226 169.389 24.0281 168.938 23.9152C168.61 23.8488 168.073 23.8128 167.32 23.8128H163.951V33.5828H161.032ZM163.951 21.2935H170.198C171.529 21.2935 172.564 21.1552 173.311 20.8788C174.059 20.6073 174.627 20.1671 175.011 19.5579C175.4 18.9534 175.595 18.298 175.595 17.5864C175.595 16.5468 175.221 15.6865 174.468 15.0158C173.716 14.3449 172.528 14.0121 170.905 14.0121H163.951V21.2935ZM180.439 33.5828L188.878 11.585H192.078L201.034 33.5828H197.721L195.176 26.9157L190.553 14.6744L183.527 33.5828H180.439ZM202.114 33.5828V11.585H209.693C211.403 11.585 212.708 11.6876 213.61 11.8974C214.869 12.1895 215.945 12.7167 216.836 13.4744C217.998 14.4577 218.863 15.7071 219.437 17.233C220.015 18.7589 220.302 20.505 220.302 22.4663C220.302 24.1355 220.108 25.6152 219.719 26.9056C219.329 28.196 218.827 29.266 218.218 30.1112C217.604 30.9559 216.938 31.6214 216.211 32.103C215.489 32.5892 214.613 32.9579 213.589 33.209C212.56 33.4597 211.383 33.5828 210.051 33.5828H202.114ZM205.033 31.002H209.723C211.172 31.002 212.309 30.8689 213.134 30.5974C213.958 30.326 214.613 29.9471 215.105 29.4554C215.791 28.7643 216.329 27.8324 216.713 26.665C217.097 25.4973 217.291 24.0843 217.291 22.4202C217.291 20.116 216.913 18.3441 216.16 17.1049C215.407 15.8657 214.49 15.0362 213.41 14.6164C212.632 14.3144 211.377 14.1657 209.647 14.1657H205.033V31.002ZM223.441 33.5828V11.585H239.325V14.1657H226.36V20.9248H238.496V23.5055H226.36V31.002H239.847V33.5828H223.441Z"/>
</mask>
<path d="M77.0359 33.5828V11.585H86.7851C88.7464 11.585 90.2363 11.7849 91.2553 12.1789C92.2745 12.5734 93.0885 13.2697 93.6977 14.2683C94.3073 15.2666 94.6093 16.3726 94.6093 17.5814C94.6093 19.1432 94.1023 20.4588 93.0935 21.529C92.0847 22.5995 90.5284 23.2751 88.4187 23.5672C89.192 23.9359 89.7755 24.3045 90.175 24.6627C91.0248 25.4411 91.8289 26.419 92.5815 27.5917L96.3862 33.5828H92.7506L89.8422 29.0052C88.9971 27.6789 88.2957 26.6701 87.7477 25.9687C87.1947 25.2669 86.7034 24.7807 86.268 24.499C85.838 24.2226 85.3924 24.0281 84.9417 23.9152C84.6141 23.8488 84.0766 23.8128 83.3237 23.8128H79.9545V33.5828H77.0359ZM79.9545 21.2935H86.2016C87.533 21.2935 88.5671 21.1552 89.3146 20.8788C90.0625 20.6073 90.6308 20.1671 91.0146 19.5579C91.404 18.9534 91.5985 18.298 91.5985 17.5864C91.5985 16.5468 91.2248 15.6865 90.4718 15.0158C89.7192 14.3449 88.5312 14.0121 86.9081 14.0121H79.9545V21.2935ZM98.6088 33.5828V11.585H114.493V14.1657H101.527V20.9248H113.663V23.5055H101.527V31.002H115.015V33.5828H98.6088ZM118.302 33.5828V11.585H121.221V31.002H132.035V33.5828H118.302ZM135.389 33.5828V11.585H138.308V33.5828H135.389ZM148.718 33.5828V14.1657H141.467V11.585H158.887V14.1657H151.636V33.5828H148.718ZM161.032 33.5828V11.585H170.782C172.743 11.585 174.233 11.7849 175.252 12.1789C176.271 12.5734 177.085 13.2697 177.694 14.2683C178.304 15.2666 178.606 16.3726 178.606 17.5814C178.606 19.1432 178.099 20.4588 177.09 21.529C176.081 22.5995 174.525 23.2751 172.415 23.5672C173.188 23.9359 173.772 24.3045 174.171 24.6627C175.021 25.4411 175.825 26.419 176.578 27.5917L180.383 33.5828H176.747L173.839 29.0052C172.994 27.6789 172.292 26.6701 171.744 25.9687C171.191 25.2669 170.7 24.7807 170.264 24.499C169.834 24.2226 169.389 24.0281 168.938 23.9152C168.61 23.8488 168.073 23.8128 167.32 23.8128H163.951V33.5828H161.032ZM163.951 21.2935H170.198C171.529 21.2935 172.564 21.1552 173.311 20.8788C174.059 20.6073 174.627 20.1671 175.011 19.5579C175.4 18.9534 175.595 18.298 175.595 17.5864C175.595 16.5468 175.221 15.6865 174.468 15.0158C173.716 14.3449 172.528 14.0121 170.905 14.0121H163.951V21.2935ZM180.439 33.5828L188.878 11.585H192.078L201.034 33.5828H197.721L195.176 26.9157L190.553 14.6744L183.527 33.5828H180.439ZM202.114 33.5828V11.585H209.693C211.403 11.585 212.708 11.6876 213.61 11.8974C214.869 12.1895 215.945 12.7167 216.836 13.4744C217.998 14.4577 218.863 15.7071 219.437 17.233C220.015 18.7589 220.302 20.505 220.302 22.4663C220.302 24.1355 220.108 25.6152 219.719 26.9056C219.329 28.196 218.827 29.266 218.218 30.1112C217.604 30.9559 216.938 31.6214 216.211 32.103C215.489 32.5892 214.613 32.9579 213.589 33.209C212.56 33.4597 211.383 33.5828 210.051 33.5828H202.114ZM205.033 31.002H209.723C211.172 31.002 212.309 30.8689 213.134 30.5974C213.958 30.326 214.613 29.9471 215.105 29.4554C215.791 28.7643 216.329 27.8324 216.713 26.665C217.097 25.4973 217.291 24.0843 217.291 22.4202C217.291 20.116 216.913 18.3441 216.16 17.1049C215.407 15.8657 214.49 15.0362 213.41 14.6164C212.632 14.3144 211.377 14.1657 209.647 14.1657H205.033V31.002ZM223.441 33.5828V11.585H239.325V14.1657H226.36V20.9248H238.496V23.5055H226.36V31.002H239.847V33.5828H223.441Z" fill="#012F7A" stroke="#012F7A" stroke-width="0.0755906" mask="url(#path-1-inside-1_800_473)"/>
<path d="M178.556 21.9656C186.407 21.9128 192.157 20.957 198.867 16.26L198.881 16.2495L198.872 16.2343L197.979 14.8434L200.563 15.4464L200.011 17.9654L199.047 16.6745L199.035 16.6578L199.019 16.6719C196.766 18.7317 193.692 20.8665 190.295 22.3672C186.902 23.8666 183.188 24.7324 179.651 24.2598L178.556 21.9656Z" fill="#4FA52B" stroke="#4FA52B" stroke-width="0.0377953"/>
<path d="M64.7617 33.1045L0.0449821 33.1842L32.4833 0.0270394L64.7617 33.1045Z" stroke="#012F7A" stroke-width="0.0377953"/>
<path d="M49.8312 33.9898L32.4833 51.6579L0.124744 18.4206L25.3622 18.5003L25.3624 18.5003L51.285 18.3402L64.8423 18.6593L49.8312 33.9898Z" stroke="#012F7A" stroke-width="0.0377953"/>
<mask id="path-5-inside-2_800_473" fill="white">
<path fill-rule="evenodd" clip-rule="evenodd" d="M25.3624 18.4805L32.6433 10.8799L47.6048 25.9215L18.4019 25.6813L32.3233 40.5628L40.2443 33.1524"/>
</mask>
<path d="M32.6433 10.8799L32.6701 10.8532L32.6428 10.8258L32.616 10.8537L32.6433 10.8799ZM47.6048 25.9215L47.6045 25.9593L47.6965 25.96L47.6316 25.8948L47.6048 25.9215ZM18.4019 25.6813L18.4022 25.6435L18.3141 25.6428L18.3743 25.7071L18.4019 25.6813ZM32.3233 40.5628L32.2957 40.5887L32.3215 40.6163L32.3491 40.5904L32.3233 40.5628ZM25.3897 18.5067L32.6706 10.906L32.616 10.8537L25.3351 18.4544L25.3897 18.5067ZM32.6165 10.9065L47.578 25.9481L47.6316 25.8948L32.6701 10.8532L32.6165 10.9065ZM47.6051 25.8837L18.4022 25.6435L18.4015 25.7191L47.6045 25.9593L47.6051 25.8837ZM18.3743 25.7071L32.2957 40.5887L32.3509 40.537L18.4295 25.6555L18.3743 25.7071ZM32.3491 40.5904L40.2701 33.18L40.2185 33.1248L32.2975 40.5352L32.3491 40.5904Z" fill="#012F7A" mask="url(#path-5-inside-2_800_473)"/>
<path d="M32.4833 51.6579L14.4861 33.172L7.27598 25.7662L0.124744 18.4206L14.4359 18.4658L25.3622 18.5003L25.3624 18.5003L40.1051 18.4092L47.5589 25.903L18.4019 25.6633L18.3578 25.6629L18.3879 25.6951L25.3942 33.1846L32.3094 40.5766L32.3223 40.5904L32.3361 40.5775L40.2517 33.1721L50.6444 33.1595L49.8312 33.9898L32.4833 51.6579ZM64.8423 18.6593L57.7683 25.8837L50.4125 18.3458L51.2847 18.3402L51.285 18.3402L64.8423 18.6593Z" fill="#4FA52B" stroke="#012F7A" stroke-width="0.0377953"/>
<path d="M32.4833 0.0270393L50.3545 18.3406L57.7548 25.9241L64.7617 33.1045L50.6894 33.1219L40.2442 33.1345L25.4162 33.153L18.4457 25.7017L47.6046 25.9414L47.6506 25.9418L47.6181 25.9092L40.1264 18.3771L32.6566 10.8676L32.643 10.8539L32.6296 10.8679L25.3543 18.4627L14.4808 18.4284L32.4833 0.0270393ZM0.0449817 33.1842L7.26246 25.8067L14.4279 33.1666L0.0449817 33.1842Z" fill="#012F7A" stroke="#012F7A" stroke-width="0.0377953"/>
<path d="M89.8775 45.4302L87.9409 38.1318H88.9316L90.0418 42.9161C90.1613 43.4173 90.2642 43.9151 90.3505 44.4096C90.5363 43.6297 90.6459 43.18 90.679 43.0605L92.068 38.1318H93.233L94.2784 41.8258C94.5406 42.7419 94.7298 43.6031 94.846 44.4096C94.9389 43.9483 95.0601 43.4189 95.2094 42.8215L96.3544 38.1318H97.3252L95.3239 45.4302H94.3929L92.8546 39.8693C92.7252 39.4047 92.6488 39.1192 92.6256 39.013C92.5493 39.3482 92.4779 39.6337 92.4115 39.8693L90.8633 45.4302H89.8775Z" fill="#012F7A"/>
<path d="M101.547 43.7276L102.473 43.8421C102.327 44.3831 102.056 44.8029 101.661 45.1016C101.266 45.4003 100.762 45.5497 100.148 45.5497C99.3747 45.5497 98.7607 45.3124 98.306 44.8378C97.8546 44.3598 97.6289 43.6911 97.6289 42.8315C97.6289 41.942 97.8579 41.2516 98.3159 40.7604C98.774 40.2692 99.368 40.0236 100.098 40.0236C100.805 40.0236 101.383 40.2643 101.831 40.7455C102.279 41.2268 102.503 41.9038 102.503 42.7767C102.503 42.8298 102.501 42.9095 102.498 43.0157H98.5549C98.5881 43.5965 98.7524 44.0412 99.0478 44.3499C99.3432 44.6585 99.7116 44.8129 100.153 44.8129C100.482 44.8129 100.762 44.7266 100.994 44.554C101.227 44.3814 101.411 44.1059 101.547 43.7276ZM98.6047 42.2789H101.557C101.517 41.8341 101.404 41.5006 101.218 41.2782C100.933 40.933 100.563 40.7604 100.108 40.7604C99.6966 40.7604 99.3498 40.8982 99.0677 41.1737C98.7889 41.4491 98.6346 41.8175 98.6047 42.2789Z" fill="#012F7A"/>
<path d="M109.891 43.4936L110.772 43.6081C110.676 44.2155 110.428 44.6917 110.03 45.0369C109.635 45.3788 109.149 45.5497 108.571 45.5497C107.848 45.5497 107.265 45.314 106.824 44.8427C106.386 44.3681 106.167 43.6894 106.167 42.8066C106.167 42.2357 106.262 41.7362 106.451 41.3081C106.64 40.8799 106.927 40.5596 107.312 40.3472C107.7 40.1315 108.122 40.0236 108.576 40.0236C109.151 40.0236 109.62 40.1697 109.985 40.4617C110.35 40.7505 110.584 41.162 110.687 41.6964L109.816 41.8308C109.733 41.4757 109.585 41.2085 109.373 41.0293C109.164 40.8501 108.91 40.7604 108.611 40.7604C108.16 40.7604 107.793 40.9231 107.511 41.2483C107.229 41.5703 107.088 42.0814 107.088 42.7817C107.088 43.4919 107.224 44.008 107.496 44.33C107.768 44.6519 108.123 44.8129 108.562 44.8129C108.913 44.8129 109.207 44.705 109.443 44.4893C109.678 44.2735 109.828 43.9417 109.891 43.4936Z" fill="#012F7A"/>
<path d="M114.989 44.778C114.657 45.0601 114.336 45.2593 114.028 45.3754C113.722 45.4916 113.394 45.5497 113.042 45.5497C112.461 45.5497 112.015 45.4086 111.703 45.1265C111.391 44.8411 111.235 44.4777 111.235 44.0362C111.235 43.7774 111.293 43.5417 111.409 43.3293C111.529 43.1136 111.683 42.941 111.872 42.8116C112.065 42.6821 112.28 42.5842 112.519 42.5178C112.695 42.4714 112.961 42.4266 113.316 42.3834C114.039 42.2971 114.572 42.1942 114.914 42.0747C114.917 41.9519 114.919 41.8739 114.919 41.8408C114.919 41.4757 114.834 41.2185 114.665 41.0691C114.436 40.8666 114.096 40.7654 113.644 40.7654C113.223 40.7654 112.911 40.8401 112.709 40.9894C112.509 41.1355 112.362 41.396 112.265 41.7711L111.389 41.6516C111.469 41.2765 111.6 40.9745 111.783 40.7455C111.965 40.5132 112.229 40.3356 112.574 40.2128C112.919 40.0867 113.319 40.0236 113.774 40.0236C114.225 40.0236 114.592 40.0767 114.874 40.1829C115.156 40.2892 115.364 40.4236 115.496 40.5862C115.629 40.7455 115.722 40.948 115.775 41.1936C115.805 41.3462 115.82 41.6217 115.82 42.02V43.2148C115.82 44.0479 115.838 44.5756 115.875 44.7979C115.915 45.017 115.991 45.2277 116.104 45.4302H115.168C115.075 45.2443 115.015 45.0269 114.989 44.778ZM114.914 42.7767C114.589 42.9095 114.101 43.0223 113.45 43.1152C113.082 43.1683 112.821 43.2281 112.669 43.2945C112.516 43.3608 112.398 43.4587 112.315 43.5882C112.232 43.7143 112.191 43.8554 112.191 44.0113C112.191 44.2503 112.28 44.4495 112.46 44.6088C112.642 44.7681 112.908 44.8477 113.256 44.8477C113.601 44.8477 113.908 44.773 114.177 44.6237C114.446 44.471 114.643 44.2636 114.77 44.0014C114.866 43.7989 114.914 43.5002 114.914 43.1053V42.7767Z" fill="#012F7A"/>
<path d="M117.204 45.4302V40.1431H118.011V40.9446C118.216 40.5696 118.406 40.3223 118.578 40.2029C118.754 40.0834 118.947 40.0236 119.156 40.0236C119.458 40.0236 119.765 40.1199 120.077 40.3124L119.768 41.1438C119.549 41.0143 119.33 40.9496 119.111 40.9496C118.915 40.9496 118.739 41.0094 118.583 41.1288C118.427 41.245 118.316 41.4076 118.25 41.6167C118.15 41.9353 118.1 42.2838 118.1 42.6622V45.4302H117.204Z" fill="#012F7A"/>
<path d="M124.229 43.7276L125.155 43.8421C125.009 44.3831 124.738 44.8029 124.343 45.1016C123.948 45.4003 123.444 45.5497 122.83 45.5497C122.056 45.5497 121.442 45.3124 120.988 44.8378C120.536 44.3598 120.311 43.6911 120.311 42.8315C120.311 41.942 120.54 41.2516 120.998 40.7604C121.456 40.2692 122.05 40.0236 122.78 40.0236C123.487 40.0236 124.064 40.2643 124.512 40.7455C124.96 41.2268 125.184 41.9038 125.184 42.7767C125.184 42.8298 125.183 42.9095 125.179 43.0157H121.237C121.27 43.5965 121.434 44.0412 121.729 44.3499C122.025 44.6585 122.393 44.8129 122.835 44.8129C123.163 44.8129 123.444 44.7266 123.676 44.554C123.908 44.3814 124.093 44.1059 124.229 43.7276ZM121.286 42.2789H124.239C124.199 41.8341 124.086 41.5006 123.9 41.2782C123.615 40.933 123.245 40.7604 122.79 40.7604C122.378 40.7604 122.031 40.8982 121.749 41.1737C121.471 41.4491 121.316 41.8175 121.286 42.2789Z" fill="#012F7A"/>
<path d="M132.572 44.778C132.241 45.0601 131.92 45.2593 131.612 45.3754C131.306 45.4916 130.978 45.5497 130.626 45.5497C130.045 45.5497 129.599 45.4086 129.287 45.1265C128.975 44.8411 128.819 44.4777 128.819 44.0362C128.819 43.7774 128.877 43.5417 128.993 43.3293C129.112 43.1136 129.267 42.941 129.456 42.8116C129.648 42.6821 129.864 42.5842 130.103 42.5178C130.279 42.4714 130.545 42.4266 130.9 42.3834C131.623 42.2971 132.156 42.1942 132.498 42.0747C132.501 41.9519 132.503 41.8739 132.503 41.8408C132.503 41.4757 132.418 41.2185 132.249 41.0691C132.02 40.8666 131.68 40.7654 131.228 40.7654C130.807 40.7654 130.495 40.8401 130.292 40.9894C130.093 41.1355 129.946 41.396 129.849 41.7711L128.973 41.6516C129.053 41.2765 129.184 40.9745 129.366 40.7455C129.549 40.5132 129.813 40.3356 130.158 40.2128C130.503 40.0867 130.903 40.0236 131.358 40.0236C131.809 40.0236 132.176 40.0767 132.458 40.1829C132.74 40.2892 132.947 40.4236 133.08 40.5862C133.213 40.7455 133.306 40.948 133.359 41.1936C133.389 41.3462 133.404 41.6217 133.404 42.02V43.2148C133.404 44.0479 133.422 44.5756 133.459 44.7979C133.498 45.017 133.575 45.2277 133.688 45.4302H132.752C132.659 45.2443 132.599 45.0269 132.572 44.778ZM132.498 42.7767C132.173 42.9095 131.685 43.0223 131.034 43.1152C130.666 43.1683 130.405 43.2281 130.253 43.2945C130.1 43.3608 129.982 43.4587 129.899 43.5882C129.816 43.7143 129.775 43.8554 129.775 44.0113C129.775 44.2503 129.864 44.4495 130.043 44.6088C130.226 44.7681 130.491 44.8477 130.84 44.8477C131.185 44.8477 131.492 44.773 131.761 44.6237C132.03 44.471 132.227 44.2636 132.353 44.0014C132.45 43.7989 132.498 43.5002 132.498 43.1053V42.7767Z" fill="#012F7A"/>
<path d="M135.624 45.4302H134.793V38.1318H135.689V40.7355C136.067 40.2609 136.55 40.0236 137.138 40.0236C137.463 40.0236 137.77 40.09 138.059 40.2228C138.351 40.3522 138.59 40.5364 138.776 40.7754C138.965 41.011 139.112 41.2965 139.219 41.6317C139.325 41.9669 139.378 42.3253 139.378 42.707C139.378 43.6131 139.154 44.3134 138.706 44.8079C138.258 45.3024 137.72 45.5497 137.093 45.5497C136.469 45.5497 135.979 45.2891 135.624 44.7681V45.4302ZM135.614 42.7468C135.614 43.3807 135.701 43.8388 135.873 44.1209C136.155 44.5822 136.537 44.8129 137.018 44.8129C137.41 44.8129 137.748 44.6436 138.034 44.3051C138.319 43.9632 138.462 43.4554 138.462 42.7817C138.462 42.0913 138.324 41.5819 138.049 41.2533C137.777 40.9247 137.446 40.7604 137.058 40.7604C136.666 40.7604 136.328 40.9314 136.042 41.2732C135.757 41.6118 135.614 42.103 135.614 42.7468Z" fill="#012F7A"/>
<path d="M140.14 42.7867C140.14 41.8076 140.412 41.0824 140.956 40.6111C141.411 40.2195 141.965 40.0236 142.619 40.0236C143.346 40.0236 143.94 40.2626 144.401 40.7405C144.863 41.2151 145.093 41.8723 145.093 42.712C145.093 43.3924 144.99 43.9284 144.785 44.32C144.582 44.7083 144.285 45.0104 143.893 45.2261C143.505 45.4418 143.08 45.5497 142.619 45.5497C141.879 45.5497 141.28 45.3124 140.822 44.8378C140.367 44.3632 140.14 43.6795 140.14 42.7867ZM141.061 42.7867C141.061 43.4637 141.208 43.9715 141.504 44.3101C141.799 44.6453 142.171 44.8129 142.619 44.8129C143.064 44.8129 143.434 44.6436 143.729 44.3051C144.024 43.9665 144.172 43.4504 144.172 42.7568C144.172 42.103 144.023 41.6084 143.724 41.2732C143.429 40.9347 143.06 40.7654 142.619 40.7654C142.171 40.7654 141.799 40.933 141.504 41.2682C141.208 41.6035 141.061 42.1096 141.061 42.7867Z" fill="#012F7A"/>
<path d="M149.614 45.4302V44.6536C149.202 45.251 148.643 45.5497 147.936 45.5497C147.624 45.5497 147.332 45.4899 147.06 45.3705C146.791 45.251 146.59 45.1016 146.457 44.9224C146.328 44.7399 146.237 44.5175 146.183 44.2553C146.147 44.0794 146.129 43.8006 146.129 43.4189V40.1431H147.025V43.0754C147.025 43.5434 147.043 43.8587 147.08 44.0213C147.136 44.257 147.255 44.4428 147.438 44.5789C147.621 44.7116 147.846 44.778 148.115 44.778C148.384 44.778 148.636 44.71 148.872 44.5739C149.107 44.4345 149.273 44.247 149.37 44.0113C149.469 43.7724 149.519 43.4272 149.519 42.9758V40.1431H150.415V45.4302H149.614Z" fill="#012F7A"/>
<path d="M153.781 44.6287L153.91 45.4202C153.658 45.4733 153.432 45.4999 153.233 45.4999C152.908 45.4999 152.655 45.4485 152.476 45.3456C152.297 45.2427 152.171 45.1083 152.098 44.9423C152.025 44.773 151.988 44.4196 151.988 43.8819V40.8401H151.331V40.1431H151.988V38.8338L152.879 38.2961V40.1431H153.781V40.8401H152.879V43.9317C152.879 44.1873 152.894 44.3515 152.924 44.4246C152.957 44.4976 153.009 44.5557 153.079 44.5988C153.152 44.6419 153.254 44.6635 153.387 44.6635C153.487 44.6635 153.618 44.6519 153.781 44.6287Z" fill="#012F7A"/>
<path d="M157.46 47.4664L157.36 46.625C157.556 46.6781 157.727 46.7047 157.873 46.7047C158.072 46.7047 158.231 46.6715 158.351 46.6051C158.47 46.5387 158.568 46.4458 158.644 46.3263C158.701 46.2367 158.792 46.0143 158.918 45.6592C158.935 45.6094 158.961 45.5364 158.998 45.4402L156.992 40.1431H157.957L159.058 43.2048C159.2 43.5932 159.328 44.0014 159.441 44.4295C159.544 44.018 159.667 43.6164 159.809 43.2248L160.939 40.1431H161.836L159.824 45.5198C159.609 46.1006 159.441 46.5006 159.321 46.7196C159.162 47.015 158.98 47.2307 158.774 47.3668C158.568 47.5062 158.322 47.5759 158.037 47.5759C157.864 47.5759 157.672 47.5394 157.46 47.4664Z" fill="#012F7A"/>
<path d="M162.264 42.7867C162.264 41.8076 162.536 41.0824 163.08 40.6111C163.535 40.2195 164.089 40.0236 164.743 40.0236C165.47 40.0236 166.064 40.2626 166.525 40.7405C166.987 41.2151 167.217 41.8723 167.217 42.712C167.217 43.3924 167.114 43.9284 166.909 44.32C166.706 44.7083 166.409 45.0104 166.017 45.2261C165.629 45.4418 165.204 45.5497 164.743 45.5497C164.003 45.5497 163.404 45.3124 162.946 44.8378C162.491 44.3632 162.264 43.6795 162.264 42.7867ZM163.185 42.7867C163.185 43.4637 163.332 43.9715 163.628 44.3101C163.923 44.6453 164.295 44.8129 164.743 44.8129C165.188 44.8129 165.558 44.6436 165.853 44.3051C166.149 43.9665 166.296 43.4504 166.296 42.7568C166.296 42.103 166.147 41.6084 165.848 41.2732C165.553 40.9347 165.184 40.7654 164.743 40.7654C164.295 40.7654 163.923 40.933 163.628 41.2682C163.332 41.6035 163.185 42.1096 163.185 42.7867Z" fill="#012F7A"/>
<path d="M171.738 45.4302V44.6536C171.326 45.251 170.767 45.5497 170.06 45.5497C169.748 45.5497 169.456 45.4899 169.184 45.3705C168.915 45.251 168.714 45.1016 168.581 44.9224C168.452 44.7399 168.361 44.5175 168.308 44.2553C168.271 44.0794 168.253 43.8006 168.253 43.4189V40.1431H169.149V43.0754C169.149 43.5434 169.167 43.8587 169.204 44.0213C169.26 44.257 169.38 44.4428 169.562 44.5789C169.745 44.7116 169.97 44.778 170.239 44.778C170.508 44.778 170.76 44.71 170.996 44.5739C171.232 44.4345 171.397 44.247 171.494 44.0113C171.593 43.7724 171.643 43.4272 171.643 42.9758V40.1431H172.539V45.4302H171.738Z" fill="#012F7A"/>
<path d="M173.938 45.4302V40.1431H174.745V40.9446C174.95 40.5696 175.14 40.3223 175.312 40.2029C175.488 40.0834 175.681 40.0236 175.89 40.0236C176.192 40.0236 176.499 40.1199 176.811 40.3124L176.502 41.1438C176.283 41.0143 176.064 40.9496 175.845 40.9496C175.649 40.9496 175.473 41.0094 175.317 41.1288C175.161 41.245 175.05 41.4076 174.984 41.6167C174.884 41.9353 174.834 42.2838 174.834 42.6622V45.4302H173.938Z" fill="#012F7A"/>
<path d="M180.186 39.1624V38.1318H181.082V39.1624H180.186ZM180.186 45.4302V40.1431H181.082V45.4302H180.186Z" fill="#012F7A"/>
<path d="M182.451 45.4302V40.1431H183.258V40.8949C183.646 40.314 184.207 40.0236 184.94 40.0236C185.259 40.0236 185.551 40.0817 185.817 40.1979C186.085 40.3107 186.286 40.4601 186.419 40.6459C186.552 40.8318 186.645 41.0525 186.698 41.3081C186.731 41.474 186.748 41.7644 186.748 42.1793V45.4302H185.851V42.2141C185.851 41.8491 185.817 41.5769 185.747 41.3977C185.677 41.2151 185.553 41.0708 185.374 40.9646C185.198 40.855 184.99 40.8003 184.751 40.8003C184.37 40.8003 184.039 40.9214 183.761 41.1637C183.485 41.406 183.347 41.8657 183.347 42.5427V45.4302H182.451Z" fill="#012F7A"/>
<path d="M189.595 45.4302L187.584 40.1431H188.53L189.665 43.3094C189.788 43.6512 189.901 44.0064 190.003 44.3748C190.083 44.096 190.194 43.7608 190.337 43.3691L191.512 40.1431H192.433L190.432 45.4302H189.595Z" fill="#012F7A"/>
<path d="M196.844 43.7276L197.77 43.8421C197.624 44.3831 197.353 44.8029 196.958 45.1016C196.563 45.4003 196.059 45.5497 195.445 45.5497C194.672 45.5497 194.058 45.3124 193.603 44.8378C193.152 44.3598 192.926 43.6911 192.926 42.8315C192.926 41.942 193.155 41.2516 193.613 40.7604C194.071 40.2692 194.665 40.0236 195.395 40.0236C196.102 40.0236 196.68 40.2643 197.128 40.7455C197.576 41.2268 197.8 41.9038 197.8 42.7767C197.8 42.8298 197.798 42.9095 197.795 43.0157H193.852C193.885 43.5965 194.049 44.0412 194.345 44.3499C194.64 44.6585 195.008 44.8129 195.45 44.8129C195.778 44.8129 196.059 44.7266 196.291 44.554C196.524 44.3814 196.708 44.1059 196.844 43.7276ZM193.902 42.2789H196.854C196.814 41.8341 196.701 41.5006 196.515 41.2782C196.23 40.933 195.86 40.7604 195.405 40.7604C194.994 40.7604 194.647 40.8982 194.365 41.1737C194.086 41.4491 193.931 41.8175 193.902 42.2789Z" fill="#012F7A"/>
<path d="M198.541 43.852L199.428 43.7126C199.477 44.0678 199.615 44.3399 199.841 44.5291C200.07 44.7183 200.388 44.8129 200.797 44.8129C201.208 44.8129 201.514 44.7299 201.713 44.564C201.912 44.3947 202.011 44.1972 202.011 43.9715C202.011 43.7691 201.923 43.6098 201.748 43.4936C201.625 43.4139 201.319 43.3127 200.832 43.1899C200.174 43.024 199.718 42.8812 199.462 42.7618C199.21 42.639 199.018 42.4714 198.885 42.2589C198.756 42.0432 198.691 41.8059 198.691 41.547C198.691 41.3114 198.744 41.094 198.85 40.8949C198.96 40.6924 199.107 40.5248 199.293 40.392C199.433 40.2892 199.622 40.2029 199.861 40.1332C200.103 40.0601 200.362 40.0236 200.637 40.0236C201.052 40.0236 201.416 40.0834 201.728 40.2029C202.043 40.3223 202.275 40.485 202.425 40.6907C202.574 40.8932 202.677 41.1654 202.733 41.5072L201.857 41.6267C201.817 41.3545 201.701 41.1421 201.509 40.9894C201.319 40.8368 201.051 40.7604 200.702 40.7604C200.291 40.7604 199.997 40.8285 199.821 40.9646C199.645 41.1006 199.557 41.2599 199.557 41.4425C199.557 41.5586 199.594 41.6632 199.667 41.7561C199.74 41.8524 199.854 41.932 200.01 41.9951C200.1 42.0283 200.364 42.1046 200.802 42.2241C201.436 42.3934 201.877 42.5328 202.126 42.6423C202.378 42.7485 202.576 42.9045 202.718 43.1103C202.861 43.316 202.932 43.5716 202.932 43.8769C202.932 44.1756 202.844 44.4577 202.669 44.7233C202.496 44.9855 202.245 45.1896 201.917 45.3356C201.588 45.4783 201.217 45.5497 200.802 45.5497C200.115 45.5497 199.59 45.407 199.228 45.1215C198.87 44.8361 198.641 44.4129 198.541 43.852Z" fill="#012F7A"/>
<path d="M205.954 44.6287L206.084 45.4202C205.832 45.4733 205.606 45.4999 205.407 45.4999C205.081 45.4999 204.829 45.4485 204.65 45.3456C204.471 45.2427 204.345 45.1083 204.272 44.9423C204.199 44.773 204.162 44.4196 204.162 43.8819V40.8401H203.505V40.1431H204.162V38.8338L205.053 38.2961V40.1431H205.954V40.8401H205.053V43.9317C205.053 44.1873 205.068 44.3515 205.098 44.4246C205.131 44.4976 205.183 44.5557 205.252 44.5988C205.325 44.6419 205.428 44.6635 205.561 44.6635C205.661 44.6635 205.792 44.6519 205.954 44.6287Z" fill="#012F7A"/>
<path d="M206.836 45.4302V40.1431H207.637V40.8849C207.803 40.626 208.024 40.4186 208.299 40.2626C208.575 40.1033 208.888 40.0236 209.24 40.0236C209.632 40.0236 209.952 40.1049 210.201 40.2676C210.453 40.4302 210.631 40.6576 210.734 40.9496C211.152 40.3323 211.696 40.0236 212.367 40.0236C212.891 40.0236 213.294 40.1697 213.576 40.4617C213.858 40.7505 213.999 41.1969 213.999 41.8009V45.4302H213.108V42.0996C213.108 41.7412 213.078 41.484 213.019 41.328C212.962 41.1687 212.858 41.0409 212.705 40.9446C212.552 40.8484 212.373 40.8003 212.167 40.8003C211.796 40.8003 211.487 40.9247 211.241 41.1737C210.996 41.4193 210.873 41.8142 210.873 42.3585V45.4302H209.977V41.9951C209.977 41.5968 209.904 41.2981 209.758 41.099C209.612 40.8998 209.373 40.8003 209.041 40.8003C208.789 40.8003 208.555 40.8666 208.339 40.9994C208.127 41.1322 207.972 41.3263 207.876 41.5819C207.78 41.8374 207.732 42.2058 207.732 42.6871V45.4302H206.836Z" fill="#012F7A"/>
<path d="M218.948 43.7276L219.874 43.8421C219.728 44.3831 219.457 44.8029 219.063 45.1016C218.668 45.4003 218.163 45.5497 217.549 45.5497C216.776 45.5497 216.162 45.3124 215.707 44.8378C215.256 44.3598 215.03 43.6911 215.03 42.8315C215.03 41.942 215.259 41.2516 215.717 40.7604C216.175 40.2692 216.769 40.0236 217.499 40.0236C218.206 40.0236 218.784 40.2643 219.232 40.7455C219.68 41.2268 219.904 41.9038 219.904 42.7767C219.904 42.8298 219.902 42.9095 219.899 43.0157H215.956C215.989 43.5965 216.153 44.0412 216.449 44.3499C216.744 44.6585 217.113 44.8129 217.554 44.8129C217.883 44.8129 218.163 44.7266 218.395 44.554C218.628 44.3814 218.812 44.1059 218.948 43.7276ZM216.006 42.2789H218.958C218.918 41.8341 218.805 41.5006 218.619 41.2782C218.334 40.933 217.964 40.7604 217.509 40.7604C217.098 40.7604 216.751 40.8982 216.469 41.1737C216.19 41.4491 216.036 41.8175 216.006 42.2789Z" fill="#012F7A"/>
<path d="M221.004 45.4302V40.1431H221.811V40.8949C222.199 40.314 222.76 40.0236 223.493 40.0236C223.812 40.0236 224.104 40.0817 224.37 40.1979C224.638 40.3107 224.839 40.4601 224.972 40.6459C225.105 40.8318 225.198 41.0525 225.251 41.3081C225.284 41.474 225.3 41.7644 225.3 42.1793V45.4302H224.404V42.2141C224.404 41.8491 224.37 41.5769 224.3 41.3977C224.23 41.2151 224.106 41.0708 223.926 40.9646C223.751 40.855 223.543 40.8003 223.304 40.8003C222.922 40.8003 222.592 40.9214 222.313 41.1637C222.038 41.406 221.9 41.8657 221.9 42.5427V45.4302H221.004Z" fill="#012F7A"/>
<path d="M228.636 44.6287L228.765 45.4202C228.513 45.4733 228.288 45.4999 228.088 45.4999C227.763 45.4999 227.511 45.4485 227.332 45.3456C227.152 45.2427 227.026 45.1083 226.953 44.9423C226.88 44.773 226.844 44.4196 226.844 43.8819V40.8401H226.187V40.1431H226.844V38.8338L227.735 38.2961V40.1431H228.636V40.8401H227.735V43.9317C227.735 44.1873 227.75 44.3515 227.78 44.4246C227.813 44.4976 227.864 44.5557 227.934 44.5988C228.007 44.6419 228.11 44.6635 228.243 44.6635C228.342 44.6635 228.473 44.6519 228.636 44.6287Z" fill="#012F7A"/>
<path d="M245.379 12.6677C247.931 12.6677 250 10.599 250 8.0472C250 5.4954 247.931 3.42676 245.379 3.42676C242.828 3.42676 240.759 5.4954 240.759 8.0472C240.759 10.599 242.828 12.6677 245.379 12.6677Z" stroke="#012F7A" stroke-width="1.00006" stroke-miterlimit="22.9256"/>
<path d="M243.61 10.1429V5.14062H245.736C246.27 5.14062 246.658 5.18612 246.899 5.27711C247.143 5.36583 247.337 5.52506 247.483 5.75481C247.628 5.98457 247.701 6.2473 247.701 6.54302C247.701 6.91836 247.591 7.22887 247.37 7.47454C247.15 7.71795 246.82 7.87149 246.381 7.93519C246.599 8.06257 246.779 8.20247 246.92 8.35488C247.063 8.50729 247.255 8.77799 247.497 9.16698L248.107 10.1429H246.899L246.169 9.05438C245.91 8.66539 245.732 8.42085 245.637 8.32076C245.541 8.2184 245.44 8.14902 245.333 8.11262C245.226 8.07395 245.057 8.05461 244.825 8.05461H244.62V10.1429H243.61ZM244.62 7.25617H245.367C245.852 7.25617 246.154 7.23569 246.275 7.19475C246.396 7.1538 246.49 7.08328 246.558 6.98319C246.626 6.8831 246.661 6.75799 246.661 6.60786C246.661 6.43952 246.615 6.30417 246.524 6.20181C246.435 6.09717 246.309 6.0312 246.145 6.0039C246.063 5.99253 245.818 5.98684 245.408 5.98684H244.62V7.25617Z" fill="#012F7A"/>
<path fill-rule="evenodd" clip-rule="evenodd" d="M246.396 7.93298C246.827 7.868 247.152 7.71518 247.37 7.47454C247.591 7.22887 247.701 6.91836 247.701 6.54302C247.701 6.2473 247.628 5.98457 247.483 5.75481C247.337 5.52506 247.143 5.36583 246.899 5.27711C246.658 5.18612 246.27 5.14062 245.736 5.14062H243.61V10.1429H244.62V8.05461H244.825C245.057 8.05461 245.226 8.07395 245.333 8.11262C245.44 8.14902 245.541 8.2184 245.637 8.32076C245.732 8.42085 245.91 8.66539 246.169 9.05438L246.899 10.1429H248.107L247.497 9.16698C247.255 8.77799 247.063 8.50729 246.92 8.35488C246.782 8.20551 246.606 8.06815 246.394 7.94281C246.389 7.94026 246.385 7.93772 246.381 7.93519C246.386 7.93446 246.391 7.93373 246.396 7.93298ZM248.09 10.1334L247.489 9.17198C247.247 8.78305 247.056 8.51302 246.913 8.36134C246.773 8.20975 246.594 8.07035 246.376 7.94333L246.353 7.92973L246.379 7.92585C246.817 7.86237 247.145 7.70951 247.363 7.46824C247.582 7.22453 247.692 6.91638 247.692 6.54302C247.692 6.24893 247.619 5.98797 247.475 5.75986C247.33 5.53178 247.138 5.37394 246.896 5.28597C246.657 5.19562 246.27 5.15006 245.736 5.15006H243.62V10.1334H244.611V8.04518H244.825C245.057 8.04518 245.228 8.06448 245.336 8.10372C245.445 8.14073 245.547 8.21111 245.644 8.3143C245.74 8.41513 245.918 8.6604 246.177 9.04914L246.904 10.1334H248.09ZM244.611 7.2656V5.97741H245.408C245.817 5.97741 246.064 5.98307 246.147 5.99456L246.147 5.9946C246.312 6.02217 246.441 6.08899 246.531 6.19562C246.624 6.30008 246.67 6.43781 246.67 6.60786C246.67 6.75943 246.636 6.88651 246.566 6.98851C246.497 7.09038 246.4 7.16211 246.278 7.20368C246.216 7.22459 246.11 7.23999 245.958 7.25022C245.807 7.26048 245.61 7.2656 245.367 7.2656H244.611ZM246.524 6.20181C246.435 6.09717 246.309 6.0312 246.145 6.0039C246.063 5.99253 245.818 5.98684 245.408 5.98684H244.62V7.25617H245.367C245.852 7.25617 246.154 7.23569 246.275 7.19475C246.396 7.1538 246.49 7.08328 246.558 6.98319C246.626 6.8831 246.661 6.75799 246.661 6.60786C246.661 6.43952 246.615 6.30417 246.524 6.20181Z" fill="#012F7A"/>
</svg>
